<?xml version="1.0" encoding="UTF-8"?>
<svg xmlns="http://www.w3.org/2000/svg" xmlns:xlink="http://www.w3.org/1999/xlink" width="230px" height="42px" viewBox="0 0 232 42" version="1.1">
<g id="surface1">
<path style=" stroke:none;fill-rule:nonzero;fill:rgb(36.078431%,41.960784%,45.098039%);fill-opacity:1;" d="M 185.5625 25.222656 C 180.390625 27.226562 175.527344 29.851562 169.875 26.875 C 169.175781 28.644531 168.453125 30.457031 167.738281 32.269531 C 167.34375 33.273438 166.964844 34.289062 166.558594 35.289062 C 166.085938 36.449219 165.34375 37.347656 163.964844 36.914062 C 162.589844 36.488281 162.445312 35.34375 162.761719 34.109375 C 163.125 32.691406 163.476562 31.269531 163.902344 29.871094 C 166.320312 21.96875 168.75 14.070312 171.195312 6.175781 C 171.550781 5.023438 171.894531 3.679688 173.667969 4.546875 C 173.882812 4.652344 174.285156 4.503906 174.539062 4.367188 C 177.078125 2.996094 179.277344 3.902344 180.800781 5.867188 C 182.863281 8.515625 184.683594 11.347656 186.238281 14.328125 C 189.640625 20.910156 191.769531 27.984375 193.617188 35.140625 C 193.699219 35.449219 193.742188 35.765625 193.792969 36.078125 C 194.039062 37.550781 193.5 38.667969 192.046875 39.007812 C 190.488281 39.375 189.519531 38.535156 189.09375 37.027344 C 188.160156 33.722656 187.21875 30.421875 186.269531 27.125 C 186.09375 26.527344 185.835938 25.957031 185.5625 25.222656 Z M 184.78125 22.921875 C 182.652344 17.628906 180.636719 12.601562 176.746094 8.085938 C 176.136719 9.390625 175.636719 10.253906 175.3125 11.183594 C 173.894531 15.199219 172.589844 19.257812 171.113281 23.25 C 170.511719 24.875 171.132812 25.3125 172.570312 25.40625 C 176.789062 25.6875 180.699219 24.539062 184.78125 22.921875 Z M 184.78125 22.921875 "/>
<path style=" stroke:none;fill-rule:nonzero;fill:rgb(36.078431%,41.960784%,45.098039%);fill-opacity:1;" d="M 132.332031 27.574219 C 131.164062 30.167969 130.351562 32.613281 129.035156 34.75 C 126.050781 39.59375 121.417969 40.078125 117.457031 35.957031 C 112.707031 31.015625 110.746094 24.8125 110.199219 18.125 C 109.867188 14.101562 110.226562 10.105469 111.75 6.3125 C 111.96875 5.757812 112.699219 5.40625 113.191406 4.960938 C 113.238281 5.589844 113.46875 6.273438 113.304688 6.839844 C 110.824219 15.382812 112.339844 23.351562 116.800781 30.835938 C 117.691406 32.328125 119.003906 33.640625 120.347656 34.761719 C 122.300781 36.394531 124.519531 36.15625 125.664062 33.898438 C 126.929688 31.398438 127.65625 28.601562 128.40625 25.875 C 128.789062 24.488281 128.726562 22.976562 128.839844 21.515625 C 128.9375 20.257812 129.425781 19.050781 130.738281 19.09375 C 131.605469 19.121094 132.683594 19.863281 133.25 20.605469 C 135.285156 23.261719 136.882812 26.300781 139.160156 28.707031 C 140.742188 30.386719 143.046875 31.574219 145.246094 32.425781 C 148.011719 33.496094 149.5625 32.390625 150.242188 29.480469 C 150.847656 26.894531 150.511719 24.375 149.210938 22.089844 C 148.085938 20.109375 146.664062 18.296875 145.472656 16.351562 C 144.464844 14.746094 143.566406 13.074219 142.78125 11.347656 C 142.585938 10.914062 142.960938 9.957031 143.378906 9.601562 C 143.699219 9.332031 144.695312 9.410156 145.058594 9.722656 C 149.710938 13.726562 153.527344 18.316406 154.816406 24.550781 C 154.921875 25.050781 154.980469 25.558594 154.996094 26.066406 C 155.195312 34.402344 150.078125 39.949219 141.242188 35.34375 C 138.402344 33.863281 136.121094 31.292969 133.621094 29.179688 C 133.113281 28.753906 132.769531 28.132812 132.332031 27.574219 Z M 132.332031 27.574219 "/>
<path style=" stroke:none;fill-rule:nonzero;fill:rgb(36.078431%,41.960784%,45.098039%);fill-opacity:1;" d="M 222.953125 33.136719 L 226.335938 31.375 C 225.726562 28.046875 225.074219 24.1875 224.292969 20.355469 C 223.238281 15.183594 222.078125 10.035156 220.96875 4.875 C 220.878906 4.441406 220.683594 3.953125 220.796875 3.566406 C 220.953125 3.042969 221.359375 2.59375 221.660156 2.113281 C 222.03125 2.46875 222.613281 2.757812 222.75 3.191406 C 224.566406 8.816406 226.511719 14.414062 228.03125 20.121094 C 229.167969 24.40625 229.75 28.84375 230.542969 33.21875 C 230.664062 33.976562 230.703125 34.742188 230.660156 35.503906 C 230.585938 37.570312 229.90625 38.164062 227.824219 38.070312 C 225.808594 41.171875 224.386719 41.472656 221.71875 38.8125 C 216.097656 33.210938 210.632812 27.449219 205.121094 21.738281 C 204.734375 21.339844 204.464844 20.824219 204.136719 20.367188 L 203.480469 20.691406 C 203.816406 22.953125 204.183594 25.210938 204.484375 27.476562 C 204.742188 29.425781 205.09375 31.390625 205.058594 33.34375 C 205.042969 34.113281 204.238281 35.269531 203.527344 35.539062 C 202.328125 35.992188 201.445312 35.035156 201.265625 33.84375 C 200.59375 29.320312 199.992188 24.789062 199.402344 20.253906 C 199.257812 19.121094 199.257812 17.96875 199.191406 16.824219 C 199.105469 15.445312 199.128906 14.082031 200.589844 13.371094 C 202.136719 12.617188 203.296875 13.472656 204.3125 14.492188 C 207.359375 17.554688 210.351562 20.671875 213.40625 23.726562 C 216.636719 26.960938 219.914062 30.148438 222.953125 33.136719 Z M 222.953125 33.136719 "/>
<path style=" stroke:none;fill-rule:nonzero;fill:rgb(36.078431%,41.960784%,45.098039%);fill-opacity:1;" d="M 22.570312 23.667969 C 21.84375 25.5625 21.277344 27.449219 20.421875 29.195312 C 18.9375 32.226562 17.136719 35.140625 13.316406 35.371094 C 9.40625 35.613281 6.914062 33.132812 5.070312 30.105469 C 0.871094 23.214844 0.296875 15.875 2.957031 8.285156 C 3.164062 7.695312 3.886719 7.289062 4.371094 6.796875 C 4.511719 7.464844 4.882812 8.179688 4.761719 8.792969 C 3.578125 14.707031 3.871094 20.488281 6.539062 25.945312 C 7.4375 27.777344 8.796875 29.496094 10.292969 30.890625 C 12.179688 32.65625 14.109375 32.28125 15.667969 30.191406 C 18.203125 26.792969 18.855469 22.761719 19.382812 18.707031 C 19.476562 17.820312 19.527344 16.929688 19.527344 16.039062 C 19.554688 14.777344 19.914062 13.703125 21.320312 13.519531 C 22.730469 13.332031 23.308594 14.269531 23.683594 15.488281 C 25.035156 19.875 27.203125 23.828125 30.445312 27.074219 C 31.71875 28.351562 33.339844 29.304688 34.886719 30.269531 C 36.105469 31.023438 36.925781 30.382812 36.894531 29.089844 C 36.84375 26.941406 36.722656 24.769531 36.351562 22.660156 C 35.691406 18.902344 34.820312 15.183594 34.039062 11.445312 C 33.832031 10.449219 33.773438 9.304688 35.003906 9.191406 C 35.558594 9.140625 36.558594 10.019531 36.765625 10.664062 C 38.25 15.320312 39.8125 19.976562 40.855469 24.738281 C 41.308594 26.796875 40.875 29.183594 40.328125 31.289062 C 39.695312 33.742188 37.601562 34.726562 35.101562 34.257812 C 31.890625 33.65625 29.414062 31.769531 27.285156 29.449219 C 25.625 27.640625 24.171875 25.648438 22.570312 23.667969 Z M 22.570312 23.667969 "/>
<path style=" stroke:none;fill-rule:nonzero;fill:rgb(36.078431%,41.960784%,45.098039%);fill-opacity:1;" d="M 52.867188 9.910156 C 53.058594 9.484375 53.257812 9.027344 53.464844 8.570312 C 54.921875 5.355469 57.648438 4.753906 60.109375 7.324219 C 61.679688 8.960938 63.019531 10.855469 64.25 12.773438 C 68.523438 19.414062 72.4375 26.253906 75.164062 33.707031 C 75.273438 34.007812 75.394531 34.300781 75.488281 34.605469 C 76.023438 36.332031 75.542969 37.648438 74.148438 38.042969 C 72.519531 38.507812 71.671875 37.59375 71.125 36.1875 C 70.320312 34.113281 69.382812 32.085938 68.683594 29.980469 C 68.164062 28.40625 67.25 28.15625 65.789062 28.433594 C 64.234375 28.730469 62.640625 29 61.066406 28.964844 C 58.386719 28.902344 55.710938 28.589844 53.03125 28.382812 C 52.964844 28.183594 52.894531 27.984375 52.828125 27.785156 C 52.621094 28.679688 52.375 29.570312 52.210938 30.472656 C 51.828125 32.601562 51.484375 34.734375 51.125 36.867188 C 50.902344 38.160156 50.4375 39.296875 48.855469 39.121094 C 47.132812 38.925781 46.988281 37.597656 47.160156 36.253906 C 47.433594 34.113281 47.613281 31.933594 48.175781 29.863281 C 49.867188 23.625 50.691406 17.277344 51.039062 10.84375 C 51.066406 10.335938 51.371094 9.839844 51.546875 9.339844 Z M 57.695312 10.296875 L 56.921875 10.507812 C 56.640625 11.386719 56.292969 12.253906 56.085938 13.15625 C 55.25 16.800781 54.578125 20.488281 53.601562 24.09375 C 53.09375 25.953125 53.78125 26.664062 55.382812 26.699219 C 59.140625 26.785156 62.902344 26.726562 66.660156 26.726562 L 67 26.046875 Z M 57.695312 10.296875 "/>
<path style=" stroke:none;fill-rule:nonzero;fill:rgb(36.078431%,41.960784%,45.098039%);fill-opacity:1;" d="M 77.246094 19.664062 C 77.351562 15.695312 77.585938 11.65625 79.953125 8.335938 C 81.175781 6.617188 83.21875 5.476562 84.945312 4.144531 C 85.179688 3.964844 85.726562 4.183594 86.125 4.21875 C 85.972656 4.589844 85.929688 5.140625 85.65625 5.304688 C 82.546875 7.175781 81.664062 10.261719 81.125 13.527344 C 80.285156 18.65625 80.621094 23.695312 82.703125 28.5 C 84.261719 32.101562 86.863281 34.554688 90.925781 35.078125 C 94.140625 35.492188 97.609375 33.582031 98.5625 30.90625 C 99.269531 28.925781 98.890625 27.554688 97.085938 26.511719 C 95.554688 25.625 93.851562 25.042969 92.320312 24.160156 C 91.714844 23.8125 91.367188 23.023438 90.902344 22.4375 C 91.535156 22.027344 92.125 21.414062 92.816406 21.261719 C 93.582031 21.09375 94.449219 21.300781 95.261719 21.425781 C 98.800781 21.984375 101.871094 23.382812 102.738281 27.199219 C 103.617188 31.050781 102.050781 34.1875 98.953125 36.527344 C 92.914062 41.089844 84.351562 39.070312 80.308594 32.132812 C 78.066406 28.285156 77.347656 24.054688 77.246094 19.664062 Z M 77.246094 19.664062 "/>
<path style="fill:none;stroke-width:20;stroke-linecap:butt;stroke-linejoin:miter;stroke:rgb(36.078431%,41.960784%,45.098039%);stroke-opacity:1;stroke-miterlimit:4;" d="M 1601.266128 1110.328304 C 1562.722284 1125.214464 1526.478261 1144.714464 1484.353682 1122.602857 C 1479.142694 1135.747946 1473.757036 1149.212232 1468.429601 1162.676518 C 1465.489323 1170.134107 1462.665492 1177.67875 1459.637878 1185.107321 C 1456.115367 1193.725625 1450.584151 1200.399732 1440.307733 1197.17875 C 1430.060427 1194.015804 1428.983295 1185.513571 1431.34134 1176.343929 C 1434.048725 1165.810446 1436.668775 1155.247946 1439.841946 1144.859554 C 1457.862067 1086.156429 1475.969522 1027.482321 1494.193425 968.837232 C 1496.842586 960.276964 1499.404413 950.294821 1512.621108 956.736786 C 1514.22225 957.520268 1517.220752 956.417589 1519.11301 955.401964 C 1538.035592 945.216696 1554.425459 951.948839 1565.779009 966.544821 C 1581.149968 986.218929 1594.716003 1007.256875 1606.302446 1029.3975 C 1631.658706 1078.292589 1647.524563 1130.843929 1661.294381 1184.004643 C 1661.905726 1186.297054 1662.225954 1188.6475 1662.604406 1190.968929 C 1664.438441 1201.908661 1660.421031 1210.207768 1649.591492 1212.732321 C 1637.975937 1215.46 1630.756245 1209.221161 1627.583073 1198.020268 C 1620.625385 1173.471161 1613.609474 1148.951071 1606.535339 1124.46 C 1605.225314 1120.020268 1603.303945 1115.783661 1601.266128 1110.328304 Z M 1595.443795 1093.236786 C 1579.577938 1053.917589 1564.556319 1016.571607 1535.5611 983.026964 C 1531.019681 992.718929 1527.293388 999.131875 1524.877119 1006.038125 C 1514.309585 1035.868482 1504.586289 1066.018036 1493.58208 1095.674286 C 1489.098883 1107.745714 1493.727638 1110.995714 1504.440731 1111.692143 C 1535.881329 1113.781429 1565.022105 1105.250179 1595.443795 1093.236786 Z M 1595.443795 1093.236786 " transform="matrix(0.134182,0,0,0.134615,-29.297964,-124.244615)"/>
<path style="fill:none;stroke-width:20;stroke-linecap:butt;stroke-linejoin:miter;stroke:rgb(36.078431%,41.960784%,45.098039%);stroke-opacity:1;stroke-miterlimit:4;" d="M 1204.561471 1127.797054 C 1195.857083 1147.064911 1189.801857 1165.230089 1179.991226 1181.102857 C 1157.749914 1217.085 1123.223479 1220.683214 1093.704251 1190.069375 C 1058.304467 1153.361786 1043.690411 1107.281429 1039.614778 1057.602857 C 1037.140286 1027.714464 1039.818559 998.029196 1051.172109 969.852857 C 1052.802362 965.732321 1058.246243 963.120714 1061.914313 959.812679 C 1062.263653 964.484554 1063.981241 969.562679 1062.758551 973.770268 C 1044.272644 1037.232321 1055.56797 1096.42875 1088.813491 1152.026964 C 1095.450951 1163.111786 1105.23247 1172.861786 1115.246883 1181.189911 C 1129.802715 1193.319375 1146.338141 1191.549286 1154.867859 1174.776964 C 1164.300038 1156.205536 1169.714808 1135.42875 1175.304248 1115.174286 C 1178.157191 1104.872946 1177.691404 1093.643036 1178.535642 1082.790357 C 1179.263434 1073.446607 1182.902392 1064.480089 1192.683912 1064.799286 C 1199.146701 1065.002411 1207.181521 1070.515804 1211.402712 1076.029196 C 1226.569889 1095.761339 1238.47656 1118.337232 1255.448661 1136.212232 C 1267.238885 1148.689911 1284.414768 1157.511339 1300.804635 1163.837232 C 1321.415694 1171.788125 1332.973025 1163.576071 1338.038454 1141.957768 C 1342.550762 1122.747946 1340.047159 1104.031429 1330.352975 1087.055982 C 1321.968815 1072.343929 1311.372169 1058.879643 1302.493111 1044.42875 C 1294.982302 1032.502411 1288.286619 1020.082768 1282.435174 1007.256875 C 1280.979591 1004.035893 1283.774311 996.926518 1286.889259 994.285893 C 1289.276416 992.283661 1296.69989 992.864018 1299.407275 995.185446 C 1334.079268 1024.92875 1362.521364 1059.024732 1372.128214 1105.337232 C 1372.914229 1109.051518 1373.350904 1112.823839 1373.46735 1116.596161 C 1374.952045 1178.520268 1336.815764 1219.725625 1270.965178 1185.513571 C 1249.800998 1174.515804 1232.799786 1155.422054 1214.16832 1139.723393 C 1210.383804 1136.560446 1207.821977 1131.946607 1204.561471 1127.797054 Z M 1204.561471 1127.797054 " transform="matrix(0.134182,0,0,0.134615,-29.297964,-124.244615)"/>
<path style="fill:none;stroke-width:20;stroke-linecap:butt;stroke-linejoin:miter;stroke:rgb(36.078431%,41.960784%,45.098039%);stroke-opacity:1;stroke-miterlimit:4;" d="M 1879.922984 1169.118482 L 1905.133686 1156.031429 C 1900.592266 1131.308214 1895.730618 1102.638571 1889.908285 1074.172054 C 1882.048136 1035.752411 1873.401971 997.506875 1865.134258 959.174286 C 1864.46469 955.953304 1863.009107 952.326071 1863.853345 949.453304 C 1865.017812 945.564911 1868.045425 942.227857 1870.287023 938.658661 C 1873.052631 941.299286 1877.390269 943.446607 1878.409178 946.667589 C 1891.946102 988.453304 1906.443711 1030.035893 1917.768148 1072.430982 C 1926.239643 1104.263571 1930.577281 1137.227857 1936.486949 1169.727857 C 1937.389411 1175.357321 1937.680527 1181.044821 1937.360299 1186.703304 C 1936.807177 1202.05375 1931.741748 1206.464464 1916.22523 1205.768036 C 1901.203611 1228.808214 1890.606965 1231.042589 1870.723698 1211.281429 C 1828.832012 1169.669821 1788.104793 1126.868482 1747.028234 1084.444375 C 1744.146179 1081.484554 1742.137474 1077.654196 1739.692094 1074.259107 L 1734.801335 1076.667589 C 1737.304938 1093.468929 1740.041434 1110.24125 1742.283033 1127.071607 C 1744.204403 1141.551518 1746.824452 1156.1475 1746.562447 1170.656429 C 1746.446001 1176.372946 1740.448998 1184.962232 1735.150675 1186.964464 C 1726.213394 1190.330536 1719.634157 1183.221161 1718.295021 1174.370714 C 1713.287814 1140.768036 1708.804618 1107.107321 1704.408757 1073.417589 C 1703.331625 1065.002411 1703.331625 1056.442143 1702.836727 1047.939911 C 1702.19627 1037.696607 1702.37094 1027.569375 1713.258703 1022.288125 C 1724.786922 1016.687679 1733.433087 1023.042589 1741.002119 1030.61625 C 1763.709218 1053.36625 1786.008753 1076.5225 1808.774075 1099.214464 C 1832.849422 1123.24125 1857.274109 1146.919821 1879.922984 1169.118482 Z M 1879.922984 1169.118482 " transform="matrix(0.134182,0,0,0.134615,-29.297964,-124.244615)"/>
<path style="fill:none;stroke-width:20;stroke-linecap:butt;stroke-linejoin:miter;stroke:rgb(36.078431%,41.960784%,45.098039%);stroke-opacity:1;stroke-miterlimit:4;" d="M 386.5528 1098.779196 C 381.13803 1112.852857 376.916839 1126.868482 370.541384 1139.839464 C 359.478951 1162.357321 346.058474 1184.004643 317.587266 1185.716696 C 288.446489 1187.515804 269.873247 1169.089464 256.132541 1146.600625 C 224.837501 1095.413125 220.558087 1040.888571 240.38313 984.506875 C 241.926049 980.125179 247.311707 977.107321 250.921553 973.451071 C 251.969573 978.413125 254.735181 983.723393 253.832719 988.279196 C 245.011885 1032.212232 247.19526 1075.158661 267.078527 1115.696607 C 273.77421 1129.305982 283.905069 1142.073839 295.054837 1152.433214 C 309.115771 1165.549286 323.496934 1162.763571 335.112488 1147.239018 C 354.005958 1121.993482 358.867606 1092.047054 362.797681 1061.926518 C 363.496361 1055.339464 363.874813 1048.723393 363.874813 1042.107321 C 364.078594 1032.734554 366.756868 1024.754643 377.237067 1023.390804 C 387.746378 1021.997946 392.054904 1028.962232 394.849624 1038.015804 C 404.92226 1070.602857 421.079234 1099.968929 445.241916 1124.082768 C 454.732319 1133.571607 466.81366 1140.651964 478.341879 1147.819375 C 487.424718 1153.419821 493.538168 1148.660893 493.305275 1139.055982 C 492.926823 1123.096161 492.024361 1106.962232 489.258753 1091.292589 C 484.338882 1063.377411 477.846981 1035.752411 472.024648 1007.982321 C 470.481729 1000.582768 470.045054 992.080536 479.215229 991.239018 C 483.349085 990.861786 490.801672 997.390804 492.34459 1002.17875 C 503.407022 1036.768036 515.051688 1071.357321 522.824503 1106.730089 C 526.201456 1122.0225 522.970061 1139.752411 518.894428 1155.393036 C 514.178338 1173.61625 498.574486 1180.92875 479.943021 1177.446607 C 456.013232 1172.977857 437.556436 1158.962232 421.690579 1141.725625 C 409.318122 1128.290357 398.488582 1113.49125 386.5528 1098.779196 Z M 386.5528 1098.779196 " transform="matrix(0.134182,0,0,0.134615,-29.297964,-124.244615)"/>
<path style="fill:none;stroke-width:20;stroke-linecap:butt;stroke-linejoin:miter;stroke:rgb(36.078431%,41.960784%,45.098039%);stroke-opacity:1;stroke-miterlimit:4;" d="M 612.342872 996.578304 C 613.769344 993.415357 615.254039 990.020268 616.796957 986.625179 C 627.655608 962.743482 647.97555 958.274732 666.315899 977.368482 C 678.018788 989.526964 688.004089 1003.600625 697.174264 1017.848393 C 729.022425 1067.17875 758.192313 1117.989018 778.512255 1173.355089 C 779.327382 1175.589464 780.229844 1177.765804 780.928524 1180.029196 C 784.916822 1192.855089 781.336087 1202.634107 770.943223 1205.564911 C 758.803658 1209.018036 752.486427 1202.227857 748.410794 1191.781429 C 742.413791 1176.372946 735.426991 1161.312679 730.216003 1145.672054 C 726.344152 1133.977857 719.532022 1132.120714 708.64426 1134.180982 C 697.057817 1136.386339 685.180258 1138.388571 673.448257 1138.127411 C 653.477655 1137.663125 633.536164 1135.341696 613.565562 1133.80375 C 613.070664 1132.323839 612.546654 1130.843929 612.051756 1129.364018 C 610.508837 1136.009107 608.674803 1142.625179 607.452113 1149.328304 C 604.59917 1165.143036 602.037343 1180.986786 599.35907 1196.830536 C 597.699705 1206.435446 594.235417 1214.879643 582.445193 1213.573839 C 569.606948 1212.122946 568.529817 1202.256875 569.81073 1192.274732 C 571.848547 1176.372946 573.187683 1160.180982 577.379763 1144.801518 C 589.985114 1098.46 596.127675 1051.305982 598.718613 1003.513571 C 598.922395 999.74125 601.193105 996.055982 602.50313 992.341696 Z M 648.32489 999.451071 L 642.56078 1001.018036 C 640.464741 1007.547054 637.873802 1013.989018 636.330884 1020.692143 C 630.100988 1047.765804 625.093782 1075.158661 617.815865 1101.942143 C 614.031349 1115.754643 619.155002 1121.035893 631.090785 1121.297054 C 659.096206 1121.935446 687.130739 1121.500179 715.136161 1121.500179 L 717.668876 1116.451071 Z M 648.32489 999.451071 " transform="matrix(0.134182,0,0,0.134615,-29.297964,-124.244615)"/>
<path style="fill:none;stroke-width:20;stroke-linecap:butt;stroke-linejoin:miter;stroke:rgb(36.078431%,41.960784%,45.098039%);stroke-opacity:1;stroke-miterlimit:4;" d="M 794.028773 1069.035893 C 794.814788 1039.55375 796.561488 1009.549286 814.203157 984.884107 C 823.315108 972.11625 838.540508 963.643036 851.407864 953.747946 C 853.154564 952.413125 857.230197 954.038125 860.199587 954.299286 C 859.064232 957.055982 858.744004 961.1475 856.706187 962.36625 C 833.533302 976.265804 826.954066 999.189911 822.936656 1023.448839 C 816.677648 1061.549286 819.181251 1098.982321 834.697769 1134.674286 C 846.313323 1161.42875 865.701692 1179.651964 895.977823 1183.540357 C 919.936723 1186.61625 945.787882 1172.426518 952.891128 1152.549286 C 958.160339 1137.837232 955.336508 1127.651964 941.886919 1119.904196 C 930.475146 1113.317143 917.78246 1108.993482 906.370688 1102.435446 C 901.858379 1099.852857 899.267441 1093.99125 895.803153 1089.638571 C 900.519243 1086.591696 904.915104 1082.035893 910.067869 1080.904196 C 915.773755 1079.656429 922.236545 1081.194375 928.291771 1082.122946 C 954.66694 1086.2725 977.548708 1096.660893 984.011498 1125.011339 C 990.561622 1153.622946 978.887845 1176.924286 955.802295 1194.305982 C 910.795661 1228.198839 846.982891 1213.196607 816.852318 1161.660893 C 800.142222 1133.078304 794.785676 1101.651964 794.028773 1069.035893 Z M 794.028773 1069.035893 " transform="matrix(0.134182,0,0,0.134615,-29.297964,-124.244615)"/>
</g>
</svg>
